#Comment line ignore any data following # character 
#Hierarchical Translation and Rotation (.htr) file 
[Header]	
#Header keywords are followed by a single value 
FileType HTR		#Single word string
DataType HTRS		#Translation followed by rotation and scale data
FileVersion 1		#integer
NumSegments 25		#integer
NumFrames 4		#integer
DataFrameRate 30		#integer, data frame rate in this file
EulerRotationOrder ZYX
CalibrationUnits mm
RotationUnits Degrees
GlobalAxisofGravity Y
BoneLengthAxis Y
ScaleFactor 1.00
[SegmentNames&Hierarchy]
#CHILD	PARENT
BN_Tick_Root GLOBAL
BN_Torso BN_Tick_Root
BN_L_Leg_Front01 BN_Torso
BN_L_Leg_Rear01 BN_Torso
BN_MetalTop BN_Torso
BN_Neck BN_Torso
BN_R_Leg_Front01 BN_Torso
BN_R_Leg_Rear01 BN_Torso
BN_Sack BN_Torso
BN_L_Leg_Front02 BN_L_Leg_Front01
BN_L_Leg_Front03 BN_L_Leg_Front02
BN_L_Leg_Rear02 BN_L_Leg_Rear01
BN_L_Leg_Rear03 BN_L_Leg_Rear02
BN_Head BN_Neck
BN_Needle BN_Head
BN_R_Leg_Front02 BN_R_Leg_Front01
BN_R_Leg_Front03 BN_R_Leg_Front02
BN_R_Leg_Rear02 BN_R_Leg_Rear01
BN_R_Leg_Rear03 BN_R_Leg_Rear02
BN_SackDef01 BN_Sack
BN_SackDef02 BN_Sack
BN_SackDef03 BN_Sack
BN_SackDef04 BN_Sack
BN_SackDef05 BN_Sack
BN_SackDef06 BN_Sack
[BasePosition]
#SegmentName Tx, Ty, Tz, Rx, Ry, Rz, BoneLength
BN_Tick_Root 0.000000 0.000000 0.000000 -90.000000 0.000000 0.000000 10.000000 
BN_Torso 0.000000 0.000000 0.000000 0.000000 0.000000 0.000000 10.000000 
BN_L_Leg_Front01 0.000000 0.000000 0.000000 0.000000 0.000000 0.000000 10.000000 
BN_L_Leg_Rear01 0.000000 0.000000 0.000000 0.000000 0.000000 0.000000 10.000000 
BN_MetalTop 0.000000 0.000000 0.000000 0.000000 0.000000 0.000000 10.000000 
BN_Neck 0.000000 0.000000 0.000000 0.000000 0.000000 0.000000 10.000000 
BN_R_Leg_Front01 0.000000 0.000000 0.000000 0.000000 0.000000 0.000000 10.000000 
BN_R_Leg_Rear01 0.000000 0.000000 0.000000 0.000000 0.000000 0.000000 10.000000 
BN_Sack 0.000000 0.000000 0.000000 0.000000 0.000000 0.000000 10.000000 
BN_L_Leg_Front02 0.000000 0.000000 0.000000 0.000000 0.000000 0.000000 10.000000 
BN_L_Leg_Front03 0.000000 0.000000 0.000000 0.000000 0.000000 0.000000 10.000000 
BN_L_Leg_Rear02 0.000000 0.000000 0.000000 0.000000 0.000000 0.000000 10.000000 
BN_L_Leg_Rear03 0.000000 0.000000 0.000000 0.000000 0.000000 0.000000 10.000000 
BN_Head 0.000000 0.000000 0.000000 0.000000 0.000000 0.000000 10.000000 
BN_Needle 0.000000 0.000000 0.000000 0.000000 0.000000 0.000000 10.000000 
BN_R_Leg_Front02 0.000000 0.000000 0.000000 0.000000 0.000000 0.000000 10.000000 
BN_R_Leg_Front03 0.000000 0.000000 0.000000 0.000000 0.000000 0.000000 10.000000 
BN_R_Leg_Rear02 0.000000 0.000000 0.000000 0.000000 0.000000 0.000000 10.000000 
BN_R_Leg_Rear03 0.000000 0.000000 0.000000 0.000000 0.000000 0.000000 10.000000 
BN_SackDef01 0.000000 0.000000 0.000000 0.000000 0.000000 0.000000 10.000000 
BN_SackDef02 0.000000 0.000000 0.000000 0.000000 0.000000 0.000000 10.000000 
BN_SackDef03 0.000000 0.000000 0.000000 0.000000 0.000000 0.000000 10.000000 
BN_SackDef04 0.000000 0.000000 0.000000 0.000000 0.000000 0.000000 10.000000 
BN_SackDef05 0.000000 0.000000 0.000000 0.000000 0.000000 0.000000 10.000000 
BN_SackDef06 0.000000 0.000000 0.000000 0.000000 0.000000 0.000000 10.000000 
#Beginning of Data. Separated by tabs
#Fr	Tx	Ty	Tz	Rx	Ry	Rz	SF
[BN_Tick_Root]
28 0.000000 -0.000059 0.000000 0.000000 0.000000 -0.000020 0.000059
29 0.000000 -0.000061 0.000000 0.000000 0.000000 -0.000020 0.000061
30 0.000000 -0.000064 0.000000 0.000000 0.000000 -0.000020 0.000064
31 0.000000 -0.000066 0.000000 0.000000 0.000000 -0.000020 0.000066
[BN_Torso]
28 79.924210 42.688908 334.215851 30.137920 0.133391 6.301627 346.280884
29 79.748192 39.975380 326.932831 25.753880 0.134864 6.301159 338.884766
30 79.622482 61.254467 313.633606 31.452503 0.133935 6.303270 329.329468
31 79.557449 93.740898 298.440430 37.150970 0.132801 6.305277 322.774597
[BN_L_Leg_Front01]
28 -68.477791 10.734189 -26.804373 54.664310 64.253738 -127.013405 74.316254
29 -68.477791 10.734189 -26.804373 45.444099 68.175034 -136.413895 74.316254
30 -68.477791 10.734189 -26.804373 53.766087 61.872669 -124.451591 74.316254
31 -68.477791 10.734189 -26.804373 55.179520 53.420261 -115.124481 74.316254
[BN_L_Leg_Rear01]
28 -72.133743 -73.994843 -18.268616 102.425453 47.831833 -122.175774 104.939293
29 -72.133743 -73.994843 -18.268616 99.703682 52.089588 -125.557091 104.939293
30 -72.133743 -73.994843 -18.268616 99.112640 42.201916 -122.472656 104.939293
31 -72.133743 -73.994843 -18.268616 97.181519 30.270668 -120.393654 104.939293
[BN_MetalTop]
28 0.000008 13.737477 26.403606 76.578606 -33.633293 -94.296272 29.763546
29 0.000008 13.737477 26.403606 76.622108 -32.930561 -94.247581 29.763546
30 0.000008 13.737477 26.403606 76.706383 -32.102451 -94.349838 29.763546
31 0.000008 13.737477 26.403606 76.863029 -31.070398 -94.649879 29.763546
[BN_Neck]
28 0.000014 95.233284 10.002091 -89.999672 -65.297531 89.999657 95.757088
29 0.000014 95.233284 10.002091 -89.999672 -65.297531 89.999657 95.757088
30 0.000014 95.233284 10.002091 -89.999672 -65.297531 89.999657 95.757088
31 0.000014 95.233284 10.002091 -89.999672 -65.297531 89.999657 95.757088
[BN_R_Leg_Front01]
28 68.477768 10.734107 -26.804314 -50.852905 61.363232 -56.268791 74.316193
29 68.477768 10.734107 -26.804314 -43.015537 65.387337 -48.289856 74.316193
30 68.477768 10.734107 -26.804314 -50.169113 58.999603 -59.131367 74.316193
31 68.477768 10.734107 -26.804314 -51.312717 50.662613 -68.584229 74.316193
[BN_R_Leg_Rear01]
28 72.133751 -73.994873 -18.268644 -75.333473 40.581421 -76.253540 104.939331
29 72.133751 -73.994873 -18.268644 -74.270882 45.504208 -74.985031 104.939331
30 72.133751 -73.994873 -18.268644 -74.594994 34.338112 -76.849243 104.939331
31 72.133751 -73.994873 -18.268644 -74.461334 21.569092 -78.382469 104.939331
[BN_Sack]
28 -0.000000 -78.024918 33.657791 94.187500 -5.093809 -97.779266 84.974907
29 -0.000000 -78.024918 33.657791 93.872978 0.488096 -100.087982 84.974907
30 -0.000000 -78.024918 33.657791 93.548500 3.343436 -101.197296 84.974907
31 -0.000000 -78.024918 33.657791 93.677826 2.003187 -99.826164 84.974907
[BN_L_Leg_Front02]
28 142.805023 -0.000015 -0.000104 0.199825 0.164553 -80.396149 142.805023
29 142.805023 -0.000015 -0.000104 0.197790 0.196924 -82.972015 142.805023
30 142.805023 -0.000015 -0.000104 0.183047 0.275470 -90.960365 142.805023
31 142.805023 -0.000015 -0.000104 0.164067 0.382011 -100.814644 142.805023
[BN_L_Leg_Front03]
28 124.143021 -0.000045 0.000007 0.351110 -0.446576 84.945686 124.143021
29 124.143021 -0.000045 0.000007 0.351766 -0.449472 88.303703 124.143021
30 124.143021 -0.000045 0.000007 0.352588 -0.442692 98.256470 124.143021
31 124.143021 -0.000045 0.000007 0.355552 -0.422979 109.486465 124.143021
[BN_L_Leg_Rear02]
28 139.939041 0.000075 -0.000022 0.112635 -0.228234 87.315186 139.939041
29 139.939041 0.000075 -0.000022 0.105860 -0.226344 88.939537 139.939041
30 139.939041 0.000075 -0.000022 0.091669 -0.217506 90.845078 139.939041
31 139.939041 0.000075 -0.000022 0.100651 -0.223644 89.802071 139.939041
[BN_L_Leg_Rear03]
28 142.839615 0.000179 -0.000060 0.000296 -0.002328 -104.496323 142.839615
29 142.839615 0.000179 -0.000060 0.000337 -0.002323 -106.503212 142.839615
30 142.839615 0.000179 -0.000060 0.000384 -0.002316 -108.812904 142.839615
31 142.839615 0.000179 -0.000060 0.000358 -0.002320 -107.555023 142.839615
[BN_Head]
28 57.062447 -0.000030 0.000000 21.483009 21.743341 64.873405 57.062447
29 57.062447 -0.000030 0.000000 17.337223 23.780285 53.998634 57.062447
30 57.062447 -0.000030 0.000000 12.585958 20.661451 64.260498 57.062447
31 57.062447 -0.000030 0.000000 11.433907 16.161217 79.306709 57.062447
[BN_Needle]
28 33.915180 69.677589 -0.000038 0.000003 0.000030 87.896805 77.493263
29 34.234592 78.375145 -0.000048 0.000003 0.000030 87.896805 85.525848
30 35.399876 110.105553 -0.000076 0.000003 0.000030 87.896805 115.656319
31 37.705528 172.887360 -0.000067 0.000003 0.000030 87.896805 176.951248
[BN_R_Leg_Front02]
28 142.804947 -0.000060 0.000060 -0.198772 0.198237 83.108498 142.804947
29 142.804947 -0.000060 0.000060 -0.195041 0.223644 85.692284 142.804947
30 142.804947 -0.000060 0.000060 -0.179955 0.310299 93.745674 142.804947
31 142.804947 -0.000060 0.000060 -0.151888 0.412963 103.826439 142.804947
[BN_R_Leg_Front03]
28 124.143005 -0.000060 -0.000156 -0.355695 -0.447599 -88.478333 124.143005
29 124.143005 -0.000060 -0.000156 -0.353390 -0.444996 -91.767281 124.143005
30 124.143005 -0.000060 -0.000156 -0.356306 -0.439103 -101.549438 124.143005
31 124.143005 -0.000060 -0.000156 -0.351819 -0.415390 -112.687584 124.143005
[BN_R_Leg_Rear02]
28 139.939011 -0.000149 0.000015 -0.099263 -0.220870 -89.302773 139.939011
29 139.939011 -0.000149 0.000015 -0.095139 -0.227347 -91.403824 139.939011
30 139.939011 -0.000149 0.000015 -0.091173 -0.224017 -91.666092 139.939011
31 139.939011 -0.000149 0.000015 -0.108235 -0.226907 -88.326561 139.939011
[BN_R_Leg_Rear03]
28 142.839417 0.000075 0.000119 0.002322 -0.000346 106.955147 142.839417
29 142.839417 0.000075 0.000119 0.002313 -0.000397 109.488609 142.839417
30 142.839417 0.000075 0.000119 0.002312 -0.000403 109.797165 142.839417
31 142.839417 0.000075 0.000119 0.002325 -0.000322 105.750298 142.839417
[BN_SackDef01]
28 249.782333 -3.760682 42.949490 -128.408218 -44.374973 -11.740845 253.475861
29 249.782333 -3.760684 42.949490 -128.408218 -44.374973 -11.740845 253.475861
30 249.782333 -3.760685 42.949490 -128.408218 -44.374973 -11.740845 253.475861
31 249.782333 -3.760687 42.949490 -128.408218 -44.374973 -11.740845 253.475861
[BN_SackDef02]
28 138.789825 -62.131645 45.674435 32.077126 -27.375721 -88.781525 158.773773
29 138.789825 -62.131645 45.674435 32.077126 -27.375721 -88.781525 158.773773
30 138.789825 -62.131645 45.674435 32.077126 -27.375721 -88.781525 158.773773
31 138.789825 -62.131645 45.674435 32.077126 -27.375721 -88.781525 158.773773
[BN_SackDef03]
28 249.782303 -3.760633 -42.949623 18.144459 44.375008 -11.740894 253.475861
29 249.782303 -3.760633 -42.949623 18.144459 44.375008 -11.740894 253.475861
30 249.782303 -3.760632 -42.949623 18.144459 44.375008 -11.740894 253.475861
31 249.782303 -3.760632 -42.949623 18.144459 44.375008 -11.740894 253.475861
[BN_SackDef04]
28 138.789810 -62.131546 -45.674408 146.059982 27.375723 -88.781555 158.773712
29 138.789810 -62.131546 -45.674408 146.059982 27.375723 -88.781555 158.773712
30 138.789810 -62.131546 -45.674408 146.059982 27.375723 -88.781555 158.773712
31 138.789810 -62.131546 -45.674408 146.059982 27.375723 -88.781555 158.773712
[BN_SackDef05]
28 118.790176 46.167183 -63.831203 0.155741 51.314110 90.605110 142.537491
29 118.790176 46.167183 -63.831203 0.155741 51.314110 90.605110 142.537491
30 118.790176 46.167183 -63.831203 0.155741 51.314110 90.605110 142.537491
31 118.790176 46.167183 -63.831203 0.155741 51.314110 90.605110 142.537491
[BN_SackDef06]
28 118.790222 46.167248 63.831181 152.058487 -51.314072 90.605019 142.537537
29 118.790222 46.167248 63.831181 152.058487 -51.314072 90.605019 142.537537
30 118.790222 46.167248 63.831181 152.058487 -51.314072 90.605019 142.537537
31 118.790222 46.167244 63.831181 152.058487 -51.314072 90.605019 142.537537
